<?xml version="1.0" standalone="no"?>
<!DOCTYPE svg PUBLIC "-//W3C//DTD SVG 20010904//EN"
 "http://www.w3.org/TR/2001/REC-SVG-20010904/DTD/svg10.dtd">
<svg version="1.0" xmlns="http://www.w3.org/2000/svg"
 width="600.000000pt" height="335.000000pt" viewBox="0 0 600.000000 335.000000"
 preserveAspectRatio="xMidYMid meet">
<g transform="translate(0.000000,335.000000) scale(0.100000,-0.100000)"
fill="#000000" stroke="none">
<path d="M0 3165 c0 -102 3 -185 8 -185 4 0 35 22 69 48 55 42 108 85 300 249
86 72 84 73 -162 73 l-215 0 0 -185z"/>
<path d="M436 3321 c-8 -15 -66 -69 -128 -120 -62 -50 -144 -118 -183 -151
-38 -33 -82 -65 -97 -71 -27 -11 -28 -13 -28 -95 l0 -85 27 15 c16 8 75 49
133 91 58 43 139 94 180 114 71 34 81 36 175 36 97 0 103 -1 188 -43 116 -55
223 -125 382 -252 152 -121 217 -155 280 -147 134 15 237 165 264 387 6 46 11
144 11 217 l0 133 -85 0 -84 0 19 -44 c38 -90 52 -265 29 -366 -24 -104 -104
-180 -190 -180 -79 1 -203 75 -368 221 -106 94 -159 161 -168 212 -7 48 32 89
122 127 l70 29 -267 1 -267 0 -15 -29z"/>
<path d="M955 3322 c-147 -58 -172 -90 -136 -166 42 -86 288 -297 419 -359
111 -52 193 -22 248 90 49 99 45 292 -8 416 l-20 47 -217 0 c-212 -1 -217 -1
-286 -28z m343 -122 c31 -19 71 -86 72 -120 0 -8 -5 -32 -11 -53 -21 -78 -115
-85 -195 -15 -40 35 -64 76 -64 110 0 78 121 125 198 78z"/>
<path d="M1162 3191 c-66 -42 -67 -97 -2 -159 78 -76 162 -75 188 2 37 113
-88 218 -186 157z"/>
<path d="M1647 3158 c-6 -215 -19 -281 -72 -388 -76 -151 -199 -206 -321 -145
-27 13 -80 50 -119 81 -221 178 -357 267 -485 317 -66 26 -84 29 -155 25 -101
-5 -170 -37 -316 -144 -57 -42 -121 -85 -141 -95 l-38 -19 0 -184 0 -183 53 4
c33 3 95 -5 172 -22 66 -14 186 -39 267 -55 211 -41 410 -95 479 -131 88 -44
138 -95 235 -242 48 -72 105 -148 126 -169 64 -64 103 -53 251 74 109 93 181
137 357 218 209 96 248 121 403 262 158 143 237 188 334 188 76 0 103 -12 164
-77 58 -60 95 -116 147 -219 55 -109 75 -191 69 -277 -7 -99 -45 -169 -173
-312 -166 -187 -192 -232 -279 -486 -63 -182 -88 -232 -139 -277 -86 -76 -221
-48 -389 79 -37 28 -176 157 -310 288 -285 279 -335 321 -382 321 -22 0 -78
-23 -157 -63 -174 -89 -237 -103 -432 -91 -83 5 -214 8 -291 8 -134 0 -145 -2
-255 -38 -63 -20 -145 -42 -182 -48 l-68 -12 0 -40 0 -39 88 6 c50 3 151 22
237 43 l150 38 235 -2 c244 -2 295 3 505 48 125 27 203 22 289 -18 79 -37 151
-95 357 -291 192 -182 282 -253 388 -307 124 -63 198 -58 266 17 51 57 79 118
135 305 28 93 71 211 96 262 41 85 60 109 188 241 165 170 194 219 203 335 9
125 -45 293 -188 578 -98 195 -168 232 -325 173 -129 -49 -222 -116 -351 -257
-138 -151 -217 -202 -427 -278 -72 -26 -172 -66 -222 -88 -118 -52 -153 -59
-207 -38 -57 22 -106 74 -164 175 -27 46 -60 93 -73 103 -19 13 -68 23 -190
38 -185 22 -266 37 -422 80 -191 53 -297 108 -339 176 -43 69 -8 159 92 239
48 38 150 75 208 75 87 0 244 -60 358 -138 76 -52 187 -168 250 -262 78 -115
84 -120 152 -120 122 0 260 105 339 258 69 133 101 250 133 497 6 50 18 110
25 135 8 25 14 48 14 53 0 4 -33 7 -74 7 l-73 0 -6 -192z"/>
<path d="M1805 3317 c-7 -18 -21 -84 -30 -147 -30 -210 -45 -287 -75 -375 -73
-215 -201 -359 -355 -400 -65 -17 -109 -12 -139 14 -10 9 -46 56 -80 106 -112
164 -244 277 -403 344 -181 77 -316 59 -434 -59 -141 -141 -64 -254 235 -344
148 -45 326 -81 481 -96 170 -17 191 -28 250 -131 121 -210 172 -230 367 -145
58 25 155 63 214 84 209 75 296 132 443 292 105 114 182 172 297 227 70 34 88
38 156 38 91 0 113 -13 170 -96 46 -67 169 -333 211 -454 27 -78 31 -104 32
-195 0 -100 -2 -109 -33 -173 -26 -51 -56 -90 -128 -160 -173 -167 -236 -263
-293 -447 -16 -52 -44 -141 -61 -198 -18 -58 -49 -128 -70 -161 -79 -122 -162
-142 -306 -72 -113 55 -215 135 -408 320 -192 184 -264 241 -356 285 -87 41
-170 41 -335 1 -117 -29 -127 -29 -395 -31 l-275 -1 -155 -38 c-85 -20 -184
-39 -220 -42 -108 -7 -110 -8 -110 -52 l0 -38 118 -7 c127 -8 196 2 372 49 72
20 143 29 305 40 115 7 281 24 368 36 138 20 167 21 228 11 135 -23 206 -72
464 -318 94 -90 213 -197 265 -239 182 -147 216 -192 208 -275 -8 -76 -127
-249 -279 -403 l-67 -67 87 0 87 0 47 69 c56 82 153 176 201 196 70 29 124 15
183 -47 38 -40 90 -135 99 -183 6 -35 7 -35 59 -35 l54 0 -20 73 c-21 73 -72
185 -155 337 -45 83 -46 86 -41 155 4 50 19 106 52 194 25 68 62 190 81 270
45 186 82 281 143 367 57 81 111 128 248 217 70 45 107 76 119 99 42 82 22
288 -48 488 -57 163 -142 418 -177 535 -54 178 -129 233 -258 189 -69 -23
-338 -168 -400 -215 -29 -22 -95 -92 -147 -157 -133 -166 -219 -225 -344 -238
-116 -13 -171 31 -157 125 4 25 33 114 65 196 32 83 82 227 111 320 28 94 72
215 96 270 24 55 47 106 50 113 4 9 -19 12 -96 12 l-102 0 -14 -33z m-1104
-622 c78 -27 128 -90 96 -122 -33 -33 -150 -11 -211 39 -84 69 -8 125 115 83z"/>
<path d="M576 2688 c-47 -36 39 -106 142 -115 98 -9 108 39 18 92 -54 32 -133
43 -160 23z"/>
<path d="M1990 3248 c-27 -57 -72 -179 -101 -273 -29 -93 -80 -244 -114 -335
-34 -91 -65 -181 -69 -201 -15 -83 41 -127 144 -115 117 14 227 90 334 229
114 149 137 168 342 278 226 122 291 139 364 101 68 -36 103 -108 166 -337 15
-55 52 -165 81 -245 99 -262 128 -393 121 -535 -6 -112 -18 -129 -164 -224
-228 -149 -290 -249 -374 -595 -17 -70 -51 -183 -76 -250 -48 -131 -60 -186
-50 -238 3 -18 37 -90 76 -158 42 -77 84 -169 106 -238 l38 -112 183 2 184 3
56 145 c30 80 78 210 106 290 48 135 51 151 51 240 0 69 -8 126 -28 208 -15
63 -33 157 -41 210 -18 115 -20 409 -4 467 20 71 67 104 255 178 230 91 313
157 349 279 38 130 10 268 -104 507 -89 187 -109 240 -121 325 -13 87 3 186
55 344 25 76 45 142 45 145 0 4 -19 7 -42 7 l-43 0 -44 -158 c-50 -178 -62
-285 -40 -385 8 -37 48 -133 105 -247 113 -228 126 -263 132 -371 5 -94 -5
-139 -45 -201 -55 -89 -198 -154 -318 -146 -55 3 -69 8 -96 33 -44 42 -50 57
-145 333 -95 276 -116 354 -139 527 -12 89 -30 162 -72 285 -53 158 -55 168
-51 247 l4 83 -182 0 -183 0 6 -68 c7 -89 -6 -129 -68 -196 -63 -69 -129 -99
-222 -100 -63 -1 -71 1 -93 27 -29 34 -31 73 -9 196 9 47 17 98 20 114 l5 27
-121 0 -120 0 -49 -102z m1133 -1840 c52 -27 71 -88 92 -298 9 -85 23 -202 30
-259 19 -134 19 -279 0 -361 -42 -181 -165 -416 -229 -440 -51 -18 -94 37
-186 240 -59 132 -90 240 -90 317 0 55 68 420 97 523 36 126 108 231 186 269
48 24 69 26 100 9z"/>
<path d="M3035 1392 c-63 -29 -129 -111 -163 -200 -17 -42 -49 -169 -73 -282
-70 -335 -64 -390 67 -669 89 -188 119 -213 181 -148 36 37 102 155 139 249
63 160 77 299 49 499 -7 57 -21 174 -30 259 -28 278 -64 340 -170 292z m-13
-504 c26 -21 59 -150 60 -238 1 -92 -19 -151 -59 -169 -58 -27 -113 95 -99
221 8 70 29 140 50 173 19 28 26 30 48 13z"/>
<path d="M2986 868 c-51 -71 -66 -247 -28 -331 19 -43 25 -48 49 -45 20 2 33
13 46 38 34 66 9 300 -38 348 -10 12 -15 10 -29 -10z"/>
<path d="M2286 3318 c-3 -18 -12 -72 -21 -119 -27 -151 -19 -182 46 -199 115
-31 279 65 320 187 11 35 8 131 -6 153 -4 6 -69 10 -170 10 l-164 0 -5 -32z"/>
<path d="M3016 3319 c-15 -76 -6 -133 48 -293 42 -123 59 -195 75 -304 25
-175 46 -259 107 -427 25 -72 59 -169 74 -217 65 -195 100 -232 215 -225 192
12 325 136 325 303 0 102 -28 189 -117 362 -46 90 -95 198 -110 241 -23 69
-25 87 -20 186 4 91 12 134 46 247 22 75 41 141 41 147 0 6 -19 11 -45 11 -44
0 -44 0 -55 -42 -6 -24 -29 -96 -50 -161 -87 -260 -79 -319 82 -590 133 -227
166 -331 135 -438 -25 -86 -108 -149 -192 -149 -40 1 -104 39 -134 80 -40 55
-106 227 -143 370 -25 96 -31 145 -38 300 -8 178 -10 190 -50 320 -30 97 -43
159 -47 223 l-6 87 -67 0 -67 0 -7 -31z"/>
<path d="M3173 3334 c-10 -28 6 -149 33 -240 58 -197 64 -226 64 -333 0 -151
17 -269 57 -401 62 -206 117 -316 179 -357 39 -25 110 -22 163 7 64 36 94 94
94 178 -1 95 -30 170 -137 357 -169 294 -175 334 -91 595 24 74 48 152 53 173
l10 37 -209 0 c-182 0 -210 -2 -216 -16z"/>
<path d="M3776 3228 c-55 -170 -66 -221 -66 -314 0 -106 16 -155 115 -364 103
-217 129 -307 123 -434 -5 -109 -30 -169 -98 -236 -56 -56 -117 -89 -277 -151
-240 -92 -245 -100 -251 -327 -5 -180 7 -299 50 -482 23 -100 32 -161 32 -235
1 -117 -8 -153 -119 -440 -40 -104 -77 -202 -80 -217 -7 -28 -7 -28 43 -28 49
0 51 1 60 33 22 81 107 259 160 337 63 92 133 154 197 171 32 9 54 8 112 -6
107 -27 111 -11 14 54 -152 104 -301 327 -352 530 -17 68 -20 104 -17 190 9
204 60 274 284 386 250 125 326 236 311 454 -8 118 -35 205 -121 394 -93 205
-107 245 -113 337 -7 101 21 213 90 350 28 58 53 108 55 113 2 4 -23 7 -55 7
l-58 0 -39 -122z"/>
<path d="M3937 3327 c-34 -53 -97 -188 -118 -257 -18 -56 -23 -98 -23 -165 0
-107 14 -150 114 -366 85 -182 110 -264 117 -394 7 -117 -10 -190 -59 -268
-45 -70 -96 -109 -248 -187 -167 -86 -209 -120 -252 -208 -32 -65 -33 -70 -33
-197 1 -177 32 -275 142 -444 79 -121 124 -172 209 -232 116 -83 114 -125 -4
-89 -58 18 -77 19 -109 11 -117 -32 -233 -185 -328 -430 -19 -50 -35 -93 -35
-96 0 -3 22 -5 48 -5 l48 0 32 65 c60 121 149 194 237 195 22 0 78 -9 125 -21
108 -26 177 -26 229 1 107 54 153 206 97 325 -32 69 -93 127 -259 247 -78 57
-170 130 -203 164 -106 107 -159 252 -135 372 26 132 84 194 272 293 67 35
144 83 170 107 111 100 153 275 114 478 -21 108 -37 156 -115 329 -38 83 -76
177 -85 208 -30 105 -20 230 27 322 73 143 162 176 302 112 86 -40 342 -212
410 -276 109 -105 130 -166 114 -347 -21 -249 48 -416 204 -494 124 -61 222
-29 284 93 14 27 43 115 64 197 41 158 63 211 102 247 35 33 102 59 198 79
150 30 164 43 236 224 45 115 83 188 135 257 33 44 39 60 39 100 l-1 48 -55
-60 c-30 -33 -95 -120 -146 -193 -134 -195 -182 -226 -416 -262 -159 -25 -201
-36 -229 -63 -28 -25 -29 -51 -7 -166 20 -105 13 -195 -21 -268 -57 -126 -182
-123 -248 7 -26 50 -28 62 -25 140 4 75 9 96 46 174 23 49 42 103 42 120 0 72
-68 132 -315 279 -177 106 -263 164 -375 256 l-75 61 -111 0 c-105 0 -113 -1
-127 -23z"/>
<path d="M4205 3340 c11 -17 238 -184 315 -231 41 -25 125 -75 185 -110 71
-41 134 -88 178 -130 62 -62 67 -70 67 -109 0 -28 -14 -73 -41 -134 -50 -110
-61 -195 -35 -273 26 -78 92 -130 151 -119 92 18 140 164 111 335 -23 132 -21
165 10 190 35 27 68 37 222 60 73 12 158 30 190 41 94 33 126 66 279 286 34
49 85 115 113 146 l51 57 -108 0 -109 0 -43 -54 c-96 -120 -186 -185 -283
-205 -64 -13 -82 -10 -258 30 -69 16 -183 36 -254 45 -219 28 -343 70 -443
151 -37 30 -48 34 -100 34 l-58 -1 45 -40 c140 -126 326 -212 580 -267 366
-80 396 -84 484 -71 117 19 173 60 318 236 61 74 112 132 115 129 7 -7 -188
-236 -246 -288 -120 -108 -229 -116 -556 -44 -238 52 -344 83 -442 127 -86 38
-216 125 -268 178 -38 40 -41 41 -108 41 -42 0 -66 -4 -62 -10z"/>
<path d="M4525 3314 c102 -75 215 -111 430 -138 72 -9 186 -30 255 -47 241
-59 322 -38 476 124 l88 92 -78 3 c-74 3 -79 1 -112 -28 -92 -80 -200 -97
-339 -51 -58 19 -104 24 -270 31 -140 6 -217 14 -255 26 -30 9 -98 19 -150 21
l-95 4 50 -37z"/>
<path d="M4708 3339 c38 -15 188 -28 312 -28 74 0 135 -6 170 -16 153 -42 189
-48 248 -36 52 10 152 65 152 84 0 4 -204 7 -452 6 -292 0 -445 -4 -430 -10z"/>
<path d="M4035 3207 c-42 -19 -82 -69 -118 -147 -24 -50 -32 -82 -35 -146 -5
-100 13 -169 93 -343 75 -165 102 -238 120 -332 43 -231 -7 -420 -139 -519
-28 -21 -96 -61 -150 -90 -128 -67 -170 -95 -199 -134 -87 -113 -94 -247 -22
-392 43 -88 107 -150 300 -290 219 -159 278 -236 278 -359 0 -115 -68 -211
-172 -242 -54 -15 -59 -15 -181 12 -143 31 -173 30 -241 -14 -45 -28 -106
-108 -134 -175 l-15 -35 263 1 262 0 -95 19 c-114 22 -143 22 -195 4 -44 -16
-58 -13 -25 5 39 21 124 23 203 6 42 -10 99 -17 127 -18 182 -1 353 246 338
489 -7 124 -54 185 -270 349 -191 146 -310 261 -344 331 -53 108 -29 218 66
293 21 17 98 61 171 97 73 36 146 81 166 100 71 71 98 176 98 373 -1 175 -22
267 -111 466 -100 226 -122 312 -104 398 30 146 139 201 281 143 128 -53 275
-167 324 -251 38 -66 46 -111 55 -306 9 -210 21 -260 91 -367 39 -60 128 -151
217 -223 150 -120 96 -268 -179 -491 -127 -103 -165 -148 -190 -228 -24 -80
-27 -213 -4 -287 19 -63 78 -133 148 -173 29 -16 118 -52 198 -79 80 -28 166
-60 190 -72 163 -83 225 -208 254 -512 l7 -68 39 0 c46 0 44 -9 24 142 -46
334 -118 435 -383 539 -245 96 -303 133 -351 230 -26 51 -31 74 -31 130 0 77
25 155 68 212 15 20 140 146 277 279 230 223 259 247 348 296 53 30 120 71
148 93 101 80 191 235 265 454 61 182 87 218 183 250 l49 16 0 281 -1 282 -24
-30 c-41 -50 -92 -148 -142 -273 -68 -171 -87 -188 -235 -216 -109 -21 -162
-43 -203 -86 -39 -42 -54 -79 -97 -253 -57 -224 -112 -297 -231 -304 -81 -5
-154 26 -221 95 -96 98 -134 238 -118 433 15 178 -3 238 -97 332 -62 61 -267
201 -391 268 -86 46 -155 59 -203 37z"/>
<path d="M4072 3054 c-96 -49 -121 -186 -63 -347 16 -45 53 -138 83 -207 74
-168 100 -268 106 -410 8 -193 -26 -336 -99 -415 -27 -29 -77 -60 -174 -109
-146 -72 -205 -117 -236 -177 -26 -53 -25 -136 3 -197 30 -63 150 -179 323
-310 174 -132 239 -196 272 -268 24 -52 25 -64 21 -158 -6 -119 -29 -188 -95
-288 -50 -77 -124 -136 -192 -154 -41 -11 -29 -13 132 -13 141 -1 177 2 177
12 0 22 136 460 153 492 8 17 27 41 42 55 25 24 33 25 133 24 180 -2 372 -59
459 -138 77 -69 120 -187 138 -378 l7 -68 44 0 45 0 -6 63 c-38 379 -102 464
-435 577 -210 71 -283 117 -333 208 -68 125 -50 341 38 456 15 20 82 80 150
136 205 168 280 294 231 389 -8 15 -59 66 -113 113 -144 125 -214 224 -248
355 -9 34 -19 133 -23 238 -7 164 -10 185 -35 238 -41 90 -182 211 -313 268
-67 29 -150 35 -192 13z m236 -170 c68 -34 145 -119 168 -186 14 -42 18 -90
19 -228 2 -158 4 -182 27 -246 28 -79 71 -146 183 -284 84 -103 115 -158 115
-205 0 -70 -69 -159 -159 -205 -78 -39 -197 -60 -257 -44 -56 15 -74 108 -84
439 -9 289 -19 348 -86 499 -110 248 -117 269 -122 348 -4 75 -4 78 26 108 40
39 96 41 170 4z m-75 -1483 c81 -2 130 -102 131 -271 2 -156 -39 -215 -132
-190 -94 25 -293 192 -327 274 -30 71 -10 127 58 163 30 16 151 32 207 27 14
-1 42 -2 63 -3z"/>
<path d="M4162 2893 c-22 -8 -42 -60 -42 -107 0 -59 24 -132 100 -300 94 -212
101 -245 110 -556 6 -178 14 -288 24 -335 9 -38 16 -71 16 -72 0 -11 67 -33
97 -33 179 1 365 149 338 270 -8 37 -65 122 -150 225 -74 89 -129 182 -152
253 -10 31 -18 113 -22 247 -8 219 -13 241 -82 319 -56 65 -181 112 -237 89z"/>
<path d="M3992 1377 c-18 -5 -43 -20 -57 -33 -60 -56 -37 -134 71 -239 142
-138 278 -194 320 -130 56 85 28 339 -44 395 -22 18 -39 20 -141 19 -64 -1
-131 -6 -149 -12z"/>
<path d="M5944 2609 c-90 -34 -107 -58 -167 -234 -57 -165 -85 -227 -141 -314
-74 -116 -127 -160 -309 -262 -61 -34 -112 -76 -235 -199 -86 -85 -198 -193
-248 -240 -50 -47 -102 -103 -116 -125 -81 -131 -76 -277 12 -378 46 -52 116
-91 276 -153 154 -59 209 -91 273 -159 82 -86 116 -182 149 -420 l17 -120 43
-3 c24 -2 42 1 42 7 0 34 -55 291 -80 372 -58 189 -141 272 -364 363 -195 81
-267 130 -307 212 -30 63 -23 159 17 235 59 112 351 375 569 512 214 135 285
215 445 502 69 124 121 200 162 237 16 14 18 29 16 101 l-3 85 -51 -19z"/>
<path d="M2572 2515 c-78 -36 -130 -75 -246 -183 -120 -112 -175 -147 -403
-253 -171 -81 -217 -110 -348 -219 -177 -149 -213 -139 -372 101 -46 70 -108
150 -138 178 -89 84 -190 120 -565 197 -391 82 -413 85 -457 79 l-43 -6 0 -95
c0 -52 3 -94 8 -94 4 1 34 7 67 15 116 28 458 11 623 -31 207 -52 307 -125
383 -279 35 -70 43 -97 46 -157 3 -63 1 -79 -19 -113 -13 -22 -45 -54 -71 -72
-90 -60 -209 -66 -432 -21 -63 12 -148 22 -200 22 -77 0 -100 -4 -155 -28 -36
-15 -107 -44 -157 -64 l-92 -37 -1 -47 c0 -40 3 -48 19 -48 21 0 165 37 287
74 104 31 187 36 354 20 286 -28 363 -16 559 83 84 42 146 67 166 67 49 0 113
-54 403 -337 265 -260 359 -336 467 -376 98 -37 159 -26 221 41 43 45 57 76
115 244 85 250 124 319 269 479 188 206 223 317 160 501 -45 130 -165 308
-239 356 -59 37 -133 38 -209 3z m166 -155 c60 -27 137 -112 180 -198 32 -65
36 -84 36 -147 0 -90 -34 -164 -129 -280 -151 -185 -209 -283 -279 -478 -48
-132 -92 -213 -135 -245 -29 -23 -44 -27 -100 -27 -108 1 -215 67 -375 229
-202 206 -286 334 -286 436 1 141 104 252 338 366 241 116 280 138 387 218
134 99 157 114 203 131 53 19 110 18 160 -5z"/>
<path d="M2575 2349 c-27 -10 -108 -62 -180 -115 -103 -76 -172 -116 -340
-199 -246 -121 -313 -172 -366 -281 -28 -57 -31 -71 -26 -124 7 -78 42 -138
161 -277 215 -249 388 -373 505 -360 86 10 129 64 205 262 85 224 123 290 249
445 176 214 199 307 116 472 -40 79 -132 172 -185 187 -54 15 -81 13 -139 -10z
m131 -188 c62 -28 97 -80 102 -152 6 -77 -2 -94 -118 -274 -107 -164 -143
-233 -215 -403 -32 -77 -60 -127 -90 -160 l-43 -47 -69 0 c-61 0 -76 4 -127
35 -107 63 -252 223 -313 345 -16 31 -28 73 -31 112 -4 53 -1 70 22 117 49
100 145 167 373 260 62 25 160 71 219 102 162 87 216 99 290 65z"/>
<path d="M2560 2151 c-30 -10 -102 -44 -160 -74 -58 -31 -150 -75 -205 -97
-217 -90 -318 -161 -361 -255 -42 -90 -25 -177 57 -296 118 -168 285 -299 383
-299 81 0 125 52 201 232 68 162 92 207 196 363 50 77 100 158 110 180 21 45
24 110 8 152 -15 42 -68 92 -109 103 -46 13 -55 12 -120 -9z m-97 -320 c45
-44 18 -167 -80 -369 -53 -108 -91 -145 -152 -144 -114 2 -251 158 -251 286 0
114 101 199 285 240 94 21 170 16 198 -13z"/>
<path d="M2308 1840 c-204 -35 -318 -120 -318 -240 0 -116 135 -270 238 -270
71 0 119 61 192 244 72 181 72 246 2 266 -41 11 -47 11 -114 0z"/>
<path d="M5949 2387 c-25 -32 -77 -113 -114 -180 -149 -266 -248 -388 -379
-467 -206 -125 -388 -270 -548 -437 -147 -154 -168 -303 -57 -411 45 -45 99
-75 205 -118 198 -80 287 -141 350 -240 45 -71 76 -168 117 -364 l33 -165 72
-3 71 -3 -28 63 c-30 66 -72 186 -116 328 -65 209 -142 297 -342 391 -208 99
-215 102 -264 149 -103 99 -85 219 57 370 94 99 229 206 369 291 240 146 305
212 474 479 40 63 91 138 112 166 40 52 40 53 37 130 l-3 79 -46 -58z"/>
<path d="M5949 2200 c-26 -36 -76 -112 -112 -170 -136 -217 -228 -310 -431
-434 -171 -104 -233 -152 -352 -270 -122 -122 -155 -176 -156 -256 0 -26 7
-61 16 -78 26 -50 102 -108 194 -147 163 -69 244 -117 307 -180 80 -79 105
-131 180 -359 35 -105 75 -217 89 -248 l26 -58 100 0 c60 0 100 4 100 10 0 6
20 53 45 104 l45 95 0 268 c0 170 -4 283 -11 308 -16 54 -16 170 -1 225 7 25
12 81 10 125 l-3 80 -38 -66 c-92 -163 -102 -269 -41 -459 70 -220 56 -352
-46 -423 -47 -33 -106 -14 -148 48 -13 18 -45 85 -72 149 -101 244 -138 277
-485 442 -183 87 -204 202 -67 363 64 75 172 159 315 243 213 125 304 208 427
393 40 61 93 136 117 168 43 57 44 60 41 125 l-3 67 -46 -65z"/>
<path d="M83 2226 c-35 -8 -67 -18 -73 -21 -6 -4 -10 -136 -10 -371 l0 -365
23 7 c24 7 90 34 206 84 107 46 180 49 361 14 191 -36 323 -39 395 -6 129 59
162 148 111 295 -75 212 -228 315 -531 356 -132 19 -414 22 -482 7z m605 -141
c111 -26 190 -81 234 -161 36 -67 41 -119 18 -172 -49 -110 -226 -108 -458 4
-178 86 -222 160 -145 245 80 88 205 118 351 84z"/>
<path d="M501 2079 c-94 -18 -191 -97 -191 -155 0 -63 161 -168 334 -218 186
-54 296 -15 296 105 0 127 -104 230 -269 265 -73 15 -105 16 -170 3z"/>
<path d="M5885 1948 c-151 -224 -244 -316 -425 -422 -174 -102 -252 -160 -335
-248 -102 -108 -129 -191 -85 -263 26 -43 69 -70 235 -149 76 -36 162 -84 192
-106 76 -58 142 -158 198 -300 51 -132 101 -200 146 -200 44 0 89 37 116 97
23 50 25 64 20 137 -4 53 -18 118 -42 191 -64 193 -51 320 50 484 43 69 45 77
45 144 l-1 72 -40 -45 c-70 -79 -127 -164 -196 -295 -38 -70 -80 -137 -94
-148 -41 -30 -116 -24 -239 18 -166 58 -230 99 -257 162 -40 97 64 218 301
350 212 118 292 192 435 406 l92 138 -3 69 -3 70 -110 -162z"/>
<path d="M5908 1811 c-144 -213 -210 -273 -454 -410 -238 -134 -330 -269 -245
-360 53 -57 294 -151 386 -151 61 0 90 29 161 165 70 135 117 206 189 283 l55
60 -2 271 -3 272 -87 -130z"/>
<path d="M1160 1279 c-69 -10 -224 -25 -346 -33 -196 -14 -235 -19 -360 -53
-134 -36 -144 -37 -297 -36 l-157 1 0 -39 c0 -36 2 -39 38 -48 20 -6 85 -26
144 -46 140 -45 183 -45 268 0 121 66 185 94 245 110 102 26 551 77 635 72
147 -10 235 -61 401 -233 63 -65 169 -175 235 -244 133 -137 164 -185 164
-255 0 -89 -68 -175 -139 -175 -46 0 -67 18 -143 121 -111 149 -201 210 -343
230 -119 16 -249 -12 -399 -88 -192 -97 -263 -105 -380 -44 -42 21 -114 69
-161 106 -115 89 -161 115 -210 114 -49 0 -71 -11 -229 -124 l-126 -90 0 -62
c0 -35 3 -63 6 -63 4 0 37 22 74 50 160 118 275 142 400 84 36 -17 123 -72
194 -122 70 -51 146 -97 167 -102 48 -13 76 -1 174 79 174 141 286 189 424
179 186 -14 297 -128 396 -411 37 -107 62 -141 104 -145 31 -3 41 4 110 75
154 158 271 330 271 400 0 64 -43 114 -225 264 -49 40 -162 143 -250 228 -156
150 -268 242 -332 275 -42 21 -149 46 -193 45 -19 -1 -91 -9 -160 -20z"/>
<path d="M1175 1190 c-33 -5 -139 -18 -235 -29 -230 -27 -271 -38 -426 -117
-155 -79 -176 -81 -316 -35 -51 16 -117 37 -145 45 l-53 15 0 -69 c0 -47 4
-72 13 -77 54 -32 60 -124 13 -185 -23 -31 -26 -44 -26 -113 0 -67 2 -76 16
-71 9 3 70 45 135 92 136 99 190 120 248 101 38 -14 55 -25 221 -147 180 -133
239 -138 446 -42 221 103 337 127 473 98 138 -29 207 -79 315 -226 36 -48 75
-96 88 -104 35 -25 73 -20 112 14 67 59 83 138 45 217 -20 42 -293 335 -451
485 -142 135 -269 174 -473 148z m221 -115 c106 -31 208 -134 202 -204 -4 -50
-36 -67 -173 -95 -121 -25 -186 -44 -370 -111 -86 -31 -110 -35 -171 -33 -58
3 -80 9 -120 33 -69 43 -114 113 -114 177 0 117 89 185 292 222 197 37 355 41
454 11z"/>
<path d="M1190 1083 c-238 -22 -344 -44 -423 -86 -70 -37 -99 -74 -105 -137
-5 -58 21 -114 78 -162 85 -74 156 -75 350 -7 173 61 213 72 349 100 58 11
115 28 128 36 69 45 -25 181 -159 231 -54 20 -155 32 -218 25z"/>
<path d="M5988 948 c-3 -24 -2 -65 2 -93 6 -43 8 -37 9 43 1 98 -3 119 -11 50z"/>
<path d="M0 825 c0 -52 2 -95 5 -95 13 0 45 68 45 95 0 27 -32 95 -45 95 -3 0
-5 -43 -5 -95z"/>
<path d="M4554 567 c-42 -20 -68 -69 -108 -201 -19 -61 -50 -164 -70 -229 -20
-65 -36 -122 -36 -128 0 -5 46 -9 105 -9 l105 0 0 53 c0 116 50 249 114 305
87 76 252 67 350 -19 56 -50 85 -118 100 -238 l12 -96 63 -3 63 -3 -6 38 c-3
21 -8 65 -11 98 -21 196 -86 300 -228 365 -129 58 -388 96 -453 67z"/>
<path d="M310 553 c-55 -11 -129 -48 -217 -109 l-93 -65 0 -189 0 -190 55 0
c30 0 55 2 55 5 0 3 -10 25 -22 48 -33 63 -32 157 4 218 53 91 144 149 244
157 55 4 71 1 129 -26 79 -38 180 -130 219 -202 22 -39 55 -155 56 -192 0 -5
92 -8 204 -8 l205 0 -25 55 c-55 119 -40 217 45 308 88 94 223 132 328 92 128
-49 213 -202 213 -384 l0 -71 95 0 96 0 -21 28 c-11 15 -44 91 -74 170 -29 79
-70 168 -91 198 -91 132 -247 190 -404 150 -88 -22 -163 -65 -273 -153 -51
-42 -108 -82 -127 -90 -51 -22 -99 -4 -221 83 -151 108 -209 141 -275 159 -33
8 -64 14 -70 14 -5 -1 -21 -4 -35 -6z"/>
<path d="M1314 446 c-59 -19 -129 -70 -162 -119 -61 -88 -65 -159 -16 -268
l27 -59 74 0 75 0 -22 32 c-41 63 -52 100 -48 163 4 69 24 103 79 134 90 51
195 12 238 -89 19 -44 22 -66 19 -129 -3 -42 -8 -84 -12 -93 -7 -16 -1 -18 64
-18 l73 0 -6 93 c-15 266 -179 417 -383 353z"/>
<path d="M263 404 c-54 -20 -138 -95 -165 -148 -32 -60 -29 -136 5 -203 l27
-53 66 0 c59 0 65 2 59 18 -38 89 -43 125 -21 175 43 101 163 117 253 34 53
-48 88 -114 98 -180 l7 -47 69 0 68 0 -6 38 c-14 102 -56 185 -132 261 -103
103 -227 142 -328 105z"/>
<path d="M4748 390 c-50 -15 -89 -45 -119 -91 -34 -53 -69 -181 -69 -251 l0
-48 276 0 277 0 -7 74 c-16 181 -77 274 -202 312 -51 15 -113 17 -156 4z"/>
<path d="M1316 314 c-84 -57 -89 -178 -10 -281 l25 -33 108 0 108 0 11 39 c59
196 -97 373 -242 275z"/>
<path d="M297 251 c-15 -10 -36 -29 -45 -42 -23 -33 -22 -115 3 -164 l20 -40
153 -3 154 -3 -7 43 c-15 96 -67 173 -138 207 -53 26 -103 27 -140 2z"/>
<path d="M2405 251 c-48 -22 -136 -108 -194 -190 l-42 -60 196 -1 196 0 -17
29 c-21 35 -63 61 -101 61 -30 0 -60 -17 -105 -58 -16 -14 -28 -21 -28 -15 0
6 18 26 41 44 29 23 54 33 88 37 43 4 52 1 84 -27 20 -18 39 -41 42 -52 5 -16
16 -19 62 -19 55 0 55 0 48 27 -22 93 -89 194 -146 224 -47 24 -73 24 -124 0z"/>
<path d="M5957 92 c-21 -43 -37 -81 -37 -85 0 -4 18 -7 40 -7 l40 0 0 85 c0
47 -2 85 -3 85 -2 0 -20 -35 -40 -78z"/>
</g>
</svg>
